<?xml version="1.0" encoding="UTF-8"?>
<svg version="1.1" xmlns="http://www.w3.org/2000/svg" width="401" height="298">
<path d="M0 0 C1.32 0 2.64 0 4 0 C12.99474987 19.76627305 21.35285079 39.76889743 29.62936401 59.84367371 C33.69669475 69.70226881 37.8148031 79.5394583 41.9375 89.375 C42.69093403 91.17317035 43.44435196 92.97134745 44.19775391 94.76953125 C45.70952059 98.37739505 47.22161903 101.98511961 48.73388672 105.59277344 C52.86767599 115.45521723 56.99511154 125.32032244 61.12371826 135.18493652 C62.24780394 137.87070338 63.37193193 140.55645251 64.49609375 143.2421875 C64.86714233 144.12865967 65.23819092 145.01513184 65.6204834 145.9284668 C68.25691605 152.22650022 70.8956677 158.52355929 73.53515625 164.8203125 C76.89542395 172.83688409 80.25146171 180.85521348 83.60302734 188.87542725 C85.54655025 193.52586315 87.49231688 198.17534095 89.44189453 202.82324219 C91.4576846 207.62943951 93.46818166 212.4378197 95.47506714 217.2477417 C96.2366439 219.07050548 97.00006785 220.89249868 97.76541138 222.71368408 C98.81990338 225.22375855 99.86777802 227.73649556 100.9140625 230.25 C101.22871964 230.99470551 101.54337677 231.73941101 101.86756897 232.50668335 C103.10487959 235.49552418 104 237.7314025 104 241 C102.22880197 240.85866501 100.45804713 240.71176792 98.6875 240.5625 C97.20830078 240.44068359 97.20830078 240.44068359 95.69921875 240.31640625 C93 240 93 240 90 239 C88.5875402 236.20344843 87.36192247 233.46532801 86.18359375 230.5703125 C85.81523911 229.69029572 85.44688446 228.81027893 85.06736755 227.90359497 C83.84710971 224.98156965 82.6424066 222.05338508 81.4375 219.125 C80.58518987 217.07606333 79.73182261 215.02756611 78.87744141 212.97949219 C77.1109257 208.74084552 75.35028795 204.49982901 73.59423828 200.25683594 C71.19291636 194.4583888 68.77104578 188.66878559 66.33984375 182.8828125 C58.65787449 164.59449209 51.0346321 146.28220288 43.44619751 127.95489502 C36.16441166 110.36976896 28.81896147 92.81161972 21.45957947 75.2588501 C18.64648972 68.54756612 15.84171907 61.83283403 13.0390625 55.1171875 C11.81628728 52.18913209 10.59334627 49.26114599 9.37033081 46.33319092 C8.5928205 44.4708492 7.8158868 42.60826662 7.0395813 40.74542236 C5.95895157 38.15253776 4.87619124 35.56055231 3.79296875 32.96875 C3.29335381 31.7680336 3.29335381 31.7680336 2.78364563 30.5430603 C0.60513537 25.33875564 -1.72523136 20.23600161 -4.29174805 15.20898438 C-5.73545429 10.70617358 -3.49867548 6.29620306 -2 2 C-1.34 2 -0.68 2 0 2 C0 1.34 0 0.68 0 0 Z " fill="#57B3B2" transform="translate(219,20)"/>
<path d="M0 0 C1.32 0 2.64 0 4 0 C4.93262898 1.62526549 5.81955669 3.27678957 6.6875 4.9375 C7.43580078 6.31228516 7.43580078 6.31228516 8.19921875 7.71484375 C9.85341963 14.501102 5.25221535 22.02813459 2.55078125 28.2578125 C2.22144089 29.02623978 1.89210052 29.79466705 1.55278015 30.58638 C0.84475404 32.23834461 0.13530828 33.88970136 -0.57543945 35.54049683 C-2.50132299 40.01637911 -4.41351322 44.49808989 -6.32421875 48.98046875 C-6.71656708 49.90088455 -7.10891541 50.82130035 -7.51315308 51.76960754 C-11.42221038 60.95959616 -15.22435447 70.19205135 -19 79.4375 C-20.32416587 82.67840702 -21.64837587 85.91929601 -22.97265625 89.16015625 C-23.46673477 90.36960403 -23.46673477 90.36960403 -23.97079468 91.60348511 C-27.7609347 100.87395181 -31.5976486 110.12503775 -35.4375 119.375 C-35.78989746 120.22407928 -36.14229492 121.07315857 -36.50537109 121.94796753 C-38.28944256 126.24641634 -40.07401509 130.54465683 -41.85888672 134.84277344 C-45.05607405 142.54261313 -48.248484 150.24443369 -51.44125366 157.94610596 C-53.19765949 162.18288509 -54.95428781 166.41957197 -56.7109375 170.65625 C-57.05950302 171.49693024 -57.40806854 172.33761047 -57.76719666 173.20376587 C-59.99215129 178.56981229 -62.21757651 183.93566335 -64.44329834 189.3013916 C-65.97036531 192.98286463 -67.4972731 196.66440367 -69.02416992 200.34594727 C-69.74267824 202.07823912 -70.46126203 203.81049967 -71.17993164 205.54272461 C-72.82245575 209.50175926 -74.46389619 213.46123222 -76.10253906 217.421875 C-77.40999225 220.58108665 -78.72574273 223.73670155 -80.04589844 226.890625 C-80.69470286 228.44789942 -81.34346747 230.00519043 -81.9921875 231.5625 C-82.29577179 232.28348877 -82.59935608 233.00447754 -82.91213989 233.74731445 C-84.46698527 237.25449972 -84.46698527 237.25449972 -85 241 C-87.76452033 242.38226016 -90.0461363 242.09525387 -93.125 242.0625 C-94.22070312 242.05347656 -95.31640625 242.04445313 -96.4453125 242.03515625 C-97.28835937 242.02355469 -98.13140625 242.01195312 -99 242 C-98.38387859 236.86011784 -96.7860633 232.60311178 -94.78125 227.88671875 C-94.45181396 227.09727371 -94.12237793 226.30782867 -93.78295898 225.49446106 C-92.6944731 222.88965528 -91.59717758 220.28865521 -90.5 217.6875 C-89.72914261 215.84663672 -88.95897184 214.00548578 -88.18945312 212.1640625 C-86.5899008 208.33790855 -84.98739749 204.51301082 -83.3828125 200.68896484 C-80.08005488 192.81165393 -76.81323959 184.91950324 -73.54638672 177.0272522 C-71.78265334 172.76745132 -70.01617779 168.50878782 -68.25 164.25 C-67.54165375 162.54167202 -66.83332042 160.83333869 -66.125 159.125 C-61.875 148.875 -61.875 148.875 -60.81248474 146.31246948 C-60.10419634 144.60424033 -59.39591387 142.89600872 -58.68763733 141.18777466 C-56.91616511 136.91532714 -55.14458972 132.64292246 -53.37280273 128.37060547 C-50.1928431 120.70247466 -47.01358422 113.03405772 -43.83824158 105.36401367 C-35.78084355 85.90157101 -27.68917312 66.4540745 -19.54623413 47.0272522 C-12.98392206 31.37073756 -6.46864191 15.69545699 0 0 Z " fill="#EB13BC" transform="translate(194,19)"/>
<path d="M0 0 C1.59801258 2.39701886 2.52206054 4.11571405 3.48950195 6.74829102 C3.76816101 7.50037842 4.04682007 8.25246582 4.33392334 9.02734375 C4.78158051 10.25324219 4.78158051 10.25324219 5.23828125 11.50390625 C5.5558136 12.36298584 5.87334595 13.22206543 6.20050049 14.10717773 C7.24129388 16.92435527 8.27695186 19.74339064 9.3125 22.5625 C10.75265947 26.46969416 12.19583748 30.37576497 13.640625 34.28125 C14.00430679 35.26485001 14.36798859 36.24845001 14.74269104 37.26185608 C17.10791897 43.64177528 19.52286513 50.00039185 21.984375 56.34375 C22.29122726 57.13619614 22.59807953 57.92864227 22.91423035 58.74510193 C24.3586699 62.4720585 25.81171925 66.19534346 27.27661133 69.91430664 C27.79016722 71.23572682 28.3034492 72.5572535 28.81640625 73.87890625 C29.26443604 75.0191626 29.71246582 76.15941895 30.17407227 77.33422852 C31 80 31 80 30 82 C27.93585258 81.98791129 25.87212109 81.88715568 23.8125 81.75 C22.66394531 81.70359375 21.51539063 81.6571875 20.33203125 81.609375 C15.60505831 79.32624153 14.99547883 76.40008908 13.23950195 71.60058594 C12.83046631 70.41239258 12.42143066 69.22419922 12 68 C11.53172386 66.73316401 11.05920613 65.46788895 10.58276367 64.20410156 C9.08794813 60.23002914 7.63567648 56.24125706 6.1875 52.25 C5.68058966 50.85928344 5.17342956 49.46865789 4.66601562 48.078125 C3.44114054 44.71979019 2.21961098 41.36025067 1 38 C0.78924332 38.5092099 0.57848663 39.0184198 0.36134338 39.5430603 C-1.82764534 44.83147893 -4.01765016 50.11947592 -6.20825195 55.40722656 C-7.02622253 57.38205286 -7.84393186 59.35698738 -8.66137695 61.33203125 C-9.83476586 64.16695024 -11.00908638 67.00148174 -12.18359375 69.8359375 C-12.55028671 70.72243988 -12.91697968 71.60894226 -13.29478455 72.52230835 C-13.6350618 73.34300812 -13.97533905 74.16370789 -14.32592773 75.00927734 C-14.6257103 75.73319672 -14.92549286 76.45711609 -15.23435974 77.20297241 C-15.78147487 78.48710157 -16.37576885 79.75153769 -17 81 C-20.96 81 -24.92 81 -29 81 C-28.35495707 74.94888299 -26.10556799 69.5716093 -23.9375 63.9375 C-23.534104 62.87474854 -23.13070801 61.81199707 -22.71508789 60.71704102 C-20.79322844 55.65997186 -18.85080904 50.61087444 -16.90625 45.5625 C-16.2495291 43.85434763 -15.59327126 42.14601716 -14.9375 40.4375 C-14.61555664 39.59936768 -14.29361328 38.76123535 -13.96191406 37.89770508 C-11.04084994 30.23100607 -8.3426462 22.49131825 -5.70092773 14.72436523 C-3.98836681 9.71400049 -2.16377438 4.83353908 0 0 Z " fill="#55B3B2" transform="translate(208,112)"/>
<path d="M0 0 C2.88106988 2.88106988 3.81818598 6.44880228 5.1953125 10.20703125 C5.5042746 11.03634659 5.81323669 11.86566193 6.13156128 12.72010803 C7.13459151 15.41566731 8.12998619 18.11397244 9.125 20.8125 C10.1440658 23.5615043 11.1646593 26.30993769 12.18548584 29.05828857 C12.85722541 30.86701183 13.5283302 32.67597098 14.1987915 34.48516846 C16.03110451 39.42291067 17.89178982 44.34681427 19.8046875 49.25390625 C20.18608887 50.23319092 20.56749023 51.21247559 20.96044922 52.22143555 C21.63578656 53.94530627 22.31678891 55.66697228 23.00439453 57.38598633 C23.72633135 59.23617718 24.37326135 61.11543171 25 63 C24.67 63.66 24.34 64.32 24 65 C21.93585258 64.98791129 19.87212109 64.88715568 17.8125 64.75 C16.66394531 64.70359375 15.51539063 64.6571875 14.33203125 64.609375 C9.60634834 62.32686461 8.99779185 59.40920753 7.24389648 54.60986328 C6.62816772 52.82298096 6.62816772 52.82298096 6 51 C5.52656762 49.72867728 5.04866708 48.45901086 4.56665039 47.19091797 C3.29985861 43.84730492 2.07508795 40.49040214 0.86816406 37.12475586 C0.36748554 35.73538942 -0.13882112 34.34803983 -0.65039062 32.96264648 C-1.40141088 30.92847484 -2.13604858 28.88904514 -2.8671875 26.84765625 C-3.30144043 25.65148682 -3.73569336 24.45531738 -4.18310547 23.22290039 C-5.02897445 19.88568688 -4.9763548 18.24604487 -4 15 C-3.51853516 13.13408203 -3.51853516 13.13408203 -3.02734375 11.23046875 C-2.66566203 9.88238234 -2.30234868 8.53473275 -1.9375 7.1875 C-1.75123047 6.49462891 -1.56496094 5.80175781 -1.37304688 5.08789062 C-0.91678802 3.39154359 -0.45859046 1.6957182 0 0 Z " fill="#EF13BA" transform="translate(214,129)"/>
<path d="M0 0 C1.02653826 3.76673312 1.28495693 7.08184221 1 11 C-0.5 12.6875 -0.5 12.6875 -2 14 C-2 15.32 -2 16.64 -2 18 C-2.66 18.33 -3.32 18.66 -4 19 C-3.34 23.95 -2.68 28.9 -2 34 C-2.66 34 -3.32 34 -4 34 C-4 34.66 -4 35.32 -4 36 C-4.66 36 -5.32 36 -6 36 C-5.84080078 36.5779834 -5.68160156 37.1559668 -5.51757812 37.75146484 C-3.57295243 48.08570559 -8.35790757 56.43574455 -12.5 65.625 C-13.21840883 67.26072671 -13.93457055 68.89744227 -14.6484375 70.53515625 C-16.05825145 73.76501293 -17.47902143 76.98972039 -18.90625 80.21191406 C-22.07885319 87.41562863 -25.04090214 94.70659754 -28 102 C-29.35015859 97.94952424 -28.62084998 95.2079832 -28 91 C-26.515 90.505 -26.515 90.505 -25 90 C-24.43941523 88.26566343 -24.43941523 88.26566343 -24 86 C-23.484375 84.88625 -22.96875 83.7725 -22.4375 82.625 C-21.00333842 79.00841861 -20.47763634 76.83066685 -21 73 C-22.31267956 71.27056525 -22.31267956 71.27056525 -24 70 C-24.66 69.01 -25.32 68.02 -26 67 C-25.01 70.3 -24.02 73.6 -23 77 C-23.66 77 -24.32 77 -25 77 C-25.33 75.68 -25.66 74.36 -26 73 C-26.66 73 -27.32 73 -28 73 C-28.66 75.97 -29.32 78.94 -30 82 C-30.99 82 -31.98 82 -33 82 C-31.12158 76.15844966 -29.05154752 70.45155291 -26.69921875 64.78515625 C-26.38588089 64.02344116 -26.07254303 63.26172607 -25.74971008 62.47692871 C-24.73179147 60.00428025 -23.70968514 57.53338735 -22.6875 55.0625 C-21.97823616 53.34183067 -21.26925542 51.62104461 -20.56054688 49.90014648 C-19.10364487 46.36376059 -17.64506673 42.82807337 -16.18505859 39.29296875 C-14.0634233 34.15527287 -11.94693961 29.01546808 -9.83203125 23.875 C-6.55711163 15.91566654 -3.27955522 7.95742459 0 0 Z " fill="#E815B8" transform="translate(173,69)"/>
<path d="M0 0 C4.29 0 8.58 0 13 0 C16.71768 7.1972168 19.93088719 14.45571092 22.875 22 C23.29007812 23.03511719 23.70515625 24.07023437 24.1328125 25.13671875 C24.51953125 26.12285156 24.90625 27.10898438 25.3046875 28.125 C25.65515137 29.01445312 26.00561523 29.90390625 26.36669922 30.8203125 C27 33 27 33 26 35 C23.27734375 35.4140625 23.27734375 35.4140625 19.9375 35.625 C18.83277344 35.69976562 17.72804687 35.77453125 16.58984375 35.8515625 C15.73519531 35.90054688 14.88054687 35.94953125 14 36 C12.32260782 32.00021203 10.65044454 27.9982892 8.98291016 23.99438477 C8.41595299 22.63507511 7.84761786 21.27633928 7.27783203 19.91821289 C6.45494762 17.95611635 5.63718516 15.9919495 4.8203125 14.02734375 C4.08192139 12.25991821 4.08192139 12.25991821 3.32861328 10.45678711 C1.99642916 6.99070937 0.96397194 3.58189575 0 0 Z " fill="#E42ABA" transform="translate(238,225)"/>
<path d="M0 0 C1.79244141 0.01740234 1.79244141 0.01740234 3.62109375 0.03515625 C5.41740234 0.04869141 5.41740234 0.04869141 7.25 0.0625 C8.17683594 0.07410156 9.10367188 0.08570313 10.05859375 0.09765625 C7.9484318 7.63558887 5.31543955 14.88581968 2.43359375 22.16015625 C2.02625 23.20365234 1.61890625 24.24714844 1.19921875 25.32226562 C-1.8076539 32.9639039 -1.8076539 32.9639039 -2.94140625 34.09765625 C-4.37030931 34.35851076 -5.81082772 34.5573281 -7.25390625 34.72265625 C-8.03378906 34.81804687 -8.81367188 34.9134375 -9.6171875 35.01171875 C-11.96215451 35.09842341 -13.69435442 34.70992389 -15.94140625 34.09765625 C-13.8312443 26.55972363 -11.19825205 19.30949282 -8.31640625 12.03515625 C-7.70539063 10.46991211 -7.70539063 10.46991211 -7.08203125 8.87304688 C-3.63814582 0.12078837 -3.63814582 0.12078837 0 0 Z " fill="#56B7B5" transform="translate(169.94140625,225.90234375)"/>
<path d="M0 0 C1.38173352 3.71668825 0.57549763 5.83126279 -0.875 9.4375 C-1.99621697 12.25622379 -2.96300586 14.79710135 -3.5078125 17.78515625 C-3.67023438 18.51605469 -3.83265625 19.24695313 -4 20 C-4.66 20.33 -5.32 20.66 -6 21 C-6.50125283 24.33142278 -6.50125283 24.33142278 -6 28 C-3.13384514 30.49540371 -3.13384514 30.49540371 0 32 C-0.68628119 36.10997612 -1.94427237 39.8015634 -3.4375 43.6875 C-3.86933594 44.82574219 -4.30117187 45.96398437 -4.74609375 47.13671875 C-6 50 -6 50 -8 52 C-10.8203125 52.1953125 -10.8203125 52.1953125 -14.125 52.125 C-15.22070312 52.10695313 -16.31640625 52.08890625 -17.4453125 52.0703125 C-18.28835937 52.04710937 -19.13140625 52.02390625 -20 52 C-19.38561972 46.42205891 -17.42244156 41.73633095 -15.25390625 36.62109375 C-14.88273178 35.73140396 -14.51155731 34.84171417 -14.12913513 33.92506409 C-12.94622589 31.09333388 -11.7545695 28.26538453 -10.5625 25.4375 C-9.76438048 23.53214953 -8.96684819 21.62655297 -8.16992188 19.72070312 C-6.70754729 16.22426582 -5.24120132 12.72954309 -3.77172852 9.23608398 C-2.48409202 6.16902658 -1.21977805 3.09484776 0 0 Z " fill="#EE13BA" transform="translate(115,209)"/>
<path d="M0 0 C1.29202804 4.62588402 0.30327754 7.40019691 -1 12 C-0.67 11.34 -0.34 10.68 0 10 C0.66 10 1.32 10 2 10 C2 9.34 2 8.68 2 8 C4.64 8 7.28 8 10 8 C7.96142282 14.42002383 5.59103923 20.63693797 2.98828125 26.84765625 C2.42864937 28.19361122 2.42864937 28.19361122 1.85771179 29.5667572 C0.67893059 32.39991341 -0.50420554 35.23122627 -1.6875 38.0625 C-2.49312851 39.99662403 -3.29846981 41.93086773 -4.10351562 43.86523438 C-6.06569443 48.57821209 -8.03177792 53.28954305 -10 58 C-11.35015859 53.94952424 -10.62084998 51.2079832 -10 47 C-8.515 46.505 -8.515 46.505 -7 46 C-6.43941523 44.26566343 -6.43941523 44.26566343 -6 42 C-5.484375 40.88625 -4.96875 39.7725 -4.4375 38.625 C-3.00333842 35.00841861 -2.47763634 32.83066685 -3 29 C-4.31267956 27.27056525 -4.31267956 27.27056525 -6 26 C-6.66 25.01 -7.32 24.02 -8 23 C-7.01 26.3 -6.02 29.6 -5 33 C-5.66 33 -6.32 33 -7 33 C-7.33 31.68 -7.66 30.36 -8 29 C-8.66 29 -9.32 29 -10 29 C-10.66 31.97 -11.32 34.94 -12 38 C-12.99 38 -13.98 38 -15 38 C-12.42635209 29.77335703 -9.13647525 21.88021522 -5.8125 13.9375 C-5.24775709 12.58150086 -4.68330172 11.22538193 -4.11914062 9.86914062 C-2.74940424 6.57804015 -1.37579019 3.28857516 0 0 Z " fill="#EF11BF" transform="translate(155,113)"/>
<path d="M0 0 C2.916227 1.4581135 4.20006226 3.30009338 6 6 C6.43378477 10.59301517 5.58380789 13.67409374 3.625 17.8125 C3.18414062 18.76769531 2.74328125 19.72289062 2.2890625 20.70703125 C1 23 1 23 -1 24 C-1.69093896 26.57951874 -1.69093896 26.57951874 -2.125 29.5625 C-2.37636719 31.08037109 -2.37636719 31.08037109 -2.6328125 32.62890625 C-2.75398437 33.41136719 -2.87515625 34.19382813 -3 35 C-8.625 37.125 -8.625 37.125 -12 36 C-12.125 33.125 -12.125 33.125 -12 30 C-11.34 29.34 -10.68 28.68 -10 28 C-9.35232207 25.42938689 -9.35232207 25.42938689 -9 23 C-8.34 23 -7.68 23 -7 23 C-7 20.36 -7 17.72 -7 15 C-6.01 15 -5.02 15 -4 15 C-4.061875 13.88625 -4.061875 13.88625 -4.125 12.75 C-3.99601866 9.91241048 -3.42948778 8.41226062 -2 6 C-1.34 6 -0.68 6 0 6 C0.33 7.32 0.66 8.64 1 10 C1.66 10 2.32 10 3 10 C2.505 9.0925 2.01 8.185 1.5 7.25 C0 4 0 4 0 0 Z " fill="#F012BF" transform="translate(147,136)"/>
<path d="M0 0 C2.4970374 2.4970374 3.16073087 4.71644396 4.3828125 8.03125 C4.82753906 9.23394531 5.27226562 10.43664062 5.73046875 11.67578125 C5.95911621 12.30307129 6.18776367 12.93036133 6.42333984 13.57666016 C7.12319326 15.4950475 7.8323723 17.4097883 8.54296875 19.32421875 C12 28.7277469 12 28.7277469 12 31 C10.35 30.67 8.7 30.34 7 30 C6.4375 28.0625 6.4375 28.0625 6 26 C6.33 25.67 6.66 25.34 7 25 C6.03223902 21.20452079 6.03223902 21.20452079 4 18 C2.0549 20.91765 1.54723683 22.62537285 1 26 C1.66 26 2.32 26 3 26 C2.67 27.65 2.34 29.3 2 31 C2.66 31 3.32 31 4 31 C3.979375 31.804375 3.95875 32.60875 3.9375 33.4375 C3.70366379 35.93354885 3.70366379 35.93354885 5 37 C5.3720248 38.5956376 5.69819799 40.20210335 6 41.8125 C6.58429913 44.90289463 7.20539872 47.95639333 8 51 C7.34 51 6.68 51 6 51 C4.39921837 46.68234787 2.81489788 42.35913763 1.24536133 38.0300293 C0.70945397 36.5589968 0.16912889 35.08956575 -0.37573242 33.62182617 C-1.15938051 31.50848116 -1.92681887 29.38983494 -2.69140625 27.26953125 C-2.93717911 26.61725052 -3.18295197 25.96496979 -3.43617249 25.29292297 C-4.8049304 21.4391832 -5.21061042 18.91687803 -4 15 C-3.51853516 13.13408203 -3.51853516 13.13408203 -3.02734375 11.23046875 C-2.66566203 9.88238234 -2.30234868 8.53473275 -1.9375 7.1875 C-1.75123047 6.49462891 -1.56496094 5.80175781 -1.37304688 5.08789062 C-0.91678802 3.39154359 -0.45859046 1.6957182 0 0 Z M5 30 C7 31 7 31 7 31 Z " fill="#E11DB4" transform="translate(214,129)"/>
<path d="M0 0 C1 2 1 2 1 3 C1.66 2.67 2.32 2.34 3 2 C3.2475 2.515625 3.495 3.03125 3.75 3.5625 C4.81253882 5.63445071 5.94448454 7.61979821 7.125 9.625 C9 13 9 13 9 15 C9.66 15 10.32 15 11 15 C12.7610915 25.75797202 12.7610915 25.75797202 10.0625 29.6875 C9.381875 30.450625 8.70125 31.21375 8 32 C6 29 6 29 6 27 C5.01 27 4.02 27 3 27 C0.48709699 21.04710355 -1.53242041 15.28962683 -3 9 C-3.645124 6.99294757 -4.30356015 4.98982813 -5 3 C-4.34 3 -3.68 3 -3 3 C-1.37485532 1.54166642 -1.37485532 1.54166642 0 0 Z " fill="#51B9B8" transform="translate(257,112)"/>
<path d="M0 0 C1.32 0 2.64 0 4 0 C4.93262898 1.62526549 5.81955669 3.27678957 6.6875 4.9375 C7.18636719 5.85402344 7.68523437 6.77054688 8.19921875 7.71484375 C9.37141091 12.52369061 7.87072481 15.53065635 6 20 C5.57501221 21.04164307 5.15002441 22.08328613 4.7121582 23.15649414 C3.27165075 26.63678607 1.79716637 30.10083274 0.3125 33.5625 C-0.19861328 34.76197266 -0.70972656 35.96144531 -1.23632812 37.19726562 C-2.48775802 40.13286285 -3.74238293 43.06704935 -5 46 C-5.87840996 42.90279155 -5.99435406 41.09354597 -5 38 C-4.34 38 -3.68 38 -3 38 C-2.10019596 33.5708675 -1.26726971 29.13014264 -0.4375 24.6875 C-0.29892578 23.94693359 -0.16035156 23.20636719 -0.01757812 22.44335938 C0.32189055 20.62895786 0.66098323 18.81448601 1 17 C0.34 17 -0.32 17 -1 17 C-0.67 15.68 -0.34 14.36 0 13 C-0.6496875 13.6496875 -0.6496875 13.6496875 -1.3125 14.3125 C-3.65625 16.65625 -3.65625 16.65625 -6 19 C-7 17 -7 17 -6.47094727 15.21240234 C-6.17244873 14.51066895 -5.8739502 13.80893555 -5.56640625 13.0859375 C-5.24736328 12.32539063 -4.92832031 11.56484375 -4.59960938 10.78125 C-4.25736328 9.9871875 -3.91511719 9.193125 -3.5625 8.375 C-3.22412109 7.57320312 -2.88574219 6.77140625 -2.53710938 5.9453125 C-1.69833222 3.96060036 -0.85004755 1.97991125 0 0 Z " fill="#DA17AC" transform="translate(194,19)"/>
<path d="M0 0 C0.66 0 1.32 0 2 0 C2.66 0.66 3.32 1.32 4 2 C4.99 2.33 5.98 2.66 7 3 C6.45144652 7.571279 5.58255197 11.67435795 4 16 C3.34 16 2.68 16 2 16 C2 17.65 2 19.3 2 21 C1.34 21 0.68 21 0 21 C0 22.32 0 23.64 0 25 C-0.99 25 -1.98 25 -3 25 C-2.938125 26.3921875 -2.938125 26.3921875 -2.875 27.8125 C-3 31 -3 31 -5 34 C-5.66 34 -6.32 34 -7 34 C-7.144375 32.9275 -7.28875 31.855 -7.4375 30.75 C-7.83749442 28.08337051 -8.27591924 25.58600271 -9 23 C-8.01 22.67 -7.02 22.34 -6 22 C-6.309375 21.1028125 -6.309375 21.1028125 -6.625 20.1875 C-7 18 -7 18 -5 15 C-4.67 14.67 -4.34 14.34 -4 14 C-3.71778828 11.41977858 -3.55179803 8.83969815 -3.37890625 6.25 C-3.25386719 5.5075 -3.12882813 4.765 -3 4 C-2.34 3.67 -1.68 3.34 -1 3 C-0.67 2.01 -0.34 1.02 0 0 Z " fill="#F111BF" transform="translate(177,65)"/>
<path d="M0 0 C0.12375 1.0725 0.2475 2.145 0.375 3.25 C0.90122777 6.4073666 1.25689295 8.38533942 3 11 C3.99 11.66 4.98 12.32 6 13 C8.45775975 17.49072152 9.38349307 21.88675913 9 27 C6.36 27 3.72 27 1 27 C0.32243118 25.44219668 -0.34159457 23.87849904 -1 22.3125 C-1.37125 21.44238281 -1.7425 20.57226562 -2.125 19.67578125 C-3.0393092 16.87979108 -3.39725505 14.91485891 -3 12 C-2.01 11.34 -1.02 10.68 0 10 C-2.9254644 9.7763932 -2.9254644 9.7763932 -5 11 C-5.33 8.03 -5.66 5.06 -6 2 C-2 0 -2 0 0 0 Z " fill="#F012BF" transform="translate(226,164)"/>
<path d="M0 0 C1.485 0.99 1.485 0.99 3 2 C3.66 2 4.32 2 5 2 C5 2.99 5 3.98 5 5 C5.66 4.34 6.32 3.68 7 3 C7 3.66 7 4.32 7 5 C7.969375 5.2475 8.93875 5.495 9.9375 5.75 C13 7 13 7 13.875 8.8125 C14 11 14 11 13.9375 13.625 C13.73240775 16.19124804 13.73240775 16.19124804 16 18 C15.75 20.5625 15.75 20.5625 15 23 C14.34 23.33 13.68 23.66 13 24 C13 23.34 13 22.68 13 22 C12.01 22.33 11.02 22.66 10 23 C9.38125 22.34 8.7625 21.68 8.125 21 C6.24362573 18.7715451 6.24362573 18.7715451 4 19 C4 16.03 4 13.06 4 10 C3.34 10 2.68 10 2 10 C0.92474806 7.34771188 -0.09456151 4.71631546 -1 2 C-0.67 1.34 -0.34 0.68 0 0 Z " fill="#54B7B7" transform="translate(236,74)"/>
<path d="M0 0 C0.66 0 1.32 0 2 0 C1.67 1.32 1.34 2.64 1 4 C1.66 4 2.32 4 3 4 C2.66569599 11.56218722 2.12892533 18.06194818 -1 25 C-1.66 25 -2.32 25 -3 25 C-3.33 26.32 -3.66 27.64 -4 29 C-5.85579119 25.86835237 -6.28640356 23.62777837 -6 20 C-5.67 19.34 -5.34 18.68 -5 18 C-5.66 17.67 -6.32 17.34 -7 17 C-7 16.01 -7 15.02 -7 14 C-6.34 13.67 -5.68 13.34 -5 13 C-5 10.69 -5 8.38 -5 6 C-4.01 5.67 -3.02 5.34 -2 5 C-0.78130071 2.49552484 -0.78130071 2.49552484 0 0 Z " fill="#F111BF" transform="translate(192,32)"/>
<path d="M0 0 C1.02653826 3.76673312 1.28495693 7.08184221 1 11 C-0.5 12.6875 -0.5 12.6875 -2 14 C-2 15.32 -2 16.64 -2 18 C-2.66 18.33 -3.32 18.66 -4 19 C-3.835 19.515625 -3.67 20.03125 -3.5 20.5625 C-2.84951 23.73363876 -2.9379266 26.77218334 -3 30 C-4.32 30.33 -5.64 30.66 -7 31 C-7 29.68 -7 28.36 -7 27 C-7.66 26.67 -8.32 26.34 -9 26 C-9 27.98 -9 29.96 -9 32 C-9.66 32 -10.32 32 -11 32 C-10.67 32.99 -10.34 33.98 -10 35 C-10.66 35 -11.32 35 -12 35 C-12 36.65 -12 38.3 -12 40 C-12.66 40 -13.32 40 -14 40 C-14.33 40.99 -14.66 41.98 -15 43 C-15.66 43 -16.32 43 -17 43 C-15.1119956 37.1201965 -13.02094076 31.38255637 -10.64453125 25.68359375 C-10.33803146 24.94166275 -10.03153168 24.19973175 -9.71574402 23.43531799 C-8.75086271 21.10151297 -7.78176602 18.76948689 -6.8125 16.4375 C-6.15141111 14.84061134 -5.49060139 13.24360708 -4.83007812 11.64648438 C-3.22327024 7.76298154 -1.61268346 3.88106638 0 0 Z " fill="#E715B9" transform="translate(173,69)"/>
<path d="M0 0 C4.58660699 5.06108357 7 10.17508752 7 17 C5.54119891 16.85892253 4.08296449 16.71197585 2.625 16.5625 C1.40683594 16.44068359 1.40683594 16.44068359 0.1640625 16.31640625 C-2 16 -2 16 -4 15 C-3.16541353 6.65413534 -3.16541353 6.65413534 -1 3 C-0.67 2.01 -0.34 1.02 0 0 Z " fill="#EC14BE" transform="translate(255,242)"/>
<path d="M0 0 C2.64 0 5.28 0 8 0 C8.33 1.65 8.66 3.3 9 5 C8.34 5 7.68 5 7 5 C7 6.98 7 8.96 7 11 C5.35 11 3.7 11 2 11 C2.33 12.98 2.66 14.96 3 17 C1.66666667 16.33333333 0.33333333 15.66666667 -1 15 C-1 14.01 -1 13.02 -1 12 C-1.66 12 -2.32 12 -3 12 C-2 8 -1 4 0 0 Z " fill="#4EB9B6" transform="translate(168,227)"/>
<path d="M0 0 C1.0625 1.8125 1.0625 1.8125 2 4 C1.67 4.99 1.34 5.98 1 7 C1.66 7 2.32 7 3 7 C3 9.97 3 12.94 3 16 C2.01 16 1.02 16 0 16 C0 17.32 0 18.64 0 20 C-1.65 19.67 -3.3 19.34 -5 19 C-5.50724362 12.15221113 -3.99098933 7.16215874 -1 1 C-0.67 0.67 -0.34 0.34 0 0 Z " fill="#EE12BF" transform="translate(105,239)"/>
<path d="M0 0 C1.10452257 3.76878627 0.68900462 5.96494449 -0.4375 9.75 C-0.72496094 10.73484375 -1.01242188 11.7196875 -1.30859375 12.734375 C-1.53675781 13.48203125 -1.76492187 14.2296875 -2 15 C-2.66 15 -3.32 15 -4 15 C-4.33 17.64 -4.66 20.28 -5 23 C-5.99 23 -6.98 23 -8 23 C-7.01 26.3 -6.02 29.6 -5 33 C-5.66 33 -6.32 33 -7 33 C-7.33 31.68 -7.66 30.36 -8 29 C-8.66 29 -9.32 29 -10 29 C-10.66 31.97 -11.32 34.94 -12 38 C-12.99 38 -13.98 38 -15 38 C-12.42635209 29.77335703 -9.13647525 21.88021522 -5.8125 13.9375 C-5.24775709 12.58150086 -4.68330172 11.22538193 -4.11914062 9.86914062 C-2.74940424 6.57804015 -1.37579019 3.28857516 0 0 Z " fill="#BE279C" transform="translate(155,113)"/>
<path d="M0 0 C3.3 0 6.6 0 10 0 C11.20126412 5.64594138 11.00995423 10.52258088 9 16 C8.34 16.33 7.68 16.66 7 17 C6.87496094 16.42636719 6.74992188 15.85273438 6.62109375 15.26171875 C5.98400072 12.94173846 5.13248654 10.96458614 4.0625 8.8125 C3.72347656 8.11769531 3.38445312 7.42289063 3.03515625 6.70703125 C2.10436123 4.83013641 2.10436123 4.83013641 0 4 C0 2.68 0 1.36 0 0 Z " fill="#EE14C8" transform="translate(241,227)"/>
<path d="M0 0 C0.66 0 1.32 0 2 0 C1.30098055 4.78559466 -0.50540663 8.94473164 -2.37890625 13.36328125 C-2.71043198 14.15526413 -3.0419577 14.94724701 -3.38352966 15.76322937 C-4.4388512 18.28149836 -5.50057498 20.7970095 -6.5625 23.3125 C-7.28102363 25.02391031 -7.99912735 26.73549698 -8.71679688 28.44726562 C-10.47300644 32.63356919 -12.2349611 36.81741186 -14 41 C-15.1700097 37.08263419 -14.69584017 34.02040985 -14 30 C-13.01 30 -12.02 30 -11 30 C-11.33 27.69 -11.66 25.38 -12 23 C-11.34 23 -10.68 23 -10 23 C-9.67 22.34 -9.34 21.68 -9 21 C-8.34 21 -7.68 21 -7 21 C-7 19.35 -7 17.7 -7 16 C-6.34 16 -5.68 16 -5 16 C-5.12375 14.7934375 -5.12375 14.7934375 -5.25 13.5625 C-4.93099452 9.01667184 -3.34566703 3.34566703 0 0 Z " fill="#B71E94" transform="translate(142,171)"/>
<path d="M0 0 C0.33 0 0.66 0 1 0 C1 2.64 1 5.28 1 8 C0.01 8.495 0.01 8.495 -1 9 C-1 10.65 -1 12.3 -1 14 C-1.99 14.33 -2.98 14.66 -4 15 C-4 16.98 -4 18.96 -4 21 C-3.01 21 -2.02 21 -1 21 C-1 22.32 -1 23.64 -1 25 C-4.875 24.125 -4.875 24.125 -6 23 C-6.25394531 23.62648437 -6.50789062 24.25296875 -6.76953125 24.8984375 C-7.11371094 25.71570313 -7.45789063 26.53296875 -7.8125 27.375 C-8.14894531 28.18710938 -8.48539063 28.99921875 -8.83203125 29.8359375 C-10 32 -10 32 -13 34 C-10.87555401 26.18300191 -7.9836327 18.82105482 -4.8125 11.375 C-4.34908203 10.27542969 -3.88566406 9.17585937 -3.40820312 8.04296875 C-2.27669493 5.36001117 -1.14056098 2.67911856 0 0 Z " fill="#EA14B7" transform="translate(139,151)"/>
<path d="M0 0 C0.33 0 0.66 0 1 0 C1.361437 3.97580699 0.40535534 6.50751733 -1.265625 10.0859375 C-2.50828992 13.3247982 -2.6980551 16.55782812 -3 20 C-1.35 20.33 0.3 20.66 2 21 C2 19.68 2 18.36 2 17 C3.32 17 4.64 17 6 17 C6 18.65 6 20.3 6 22 C3.23547967 23.38226016 0.9538637 23.09525387 -2.125 23.0625 C-3.22070312 23.05347656 -4.31640625 23.04445313 -5.4453125 23.03515625 C-6.70988281 23.01775391 -6.70988281 23.01775391 -8 23 C-7.38696372 17.59491957 -5.55619307 13.07560955 -3.4375 8.125 C-3.10814453 7.34125 -2.77878906 6.5575 -2.43945312 5.75 C-1.63203214 3.83091244 -0.81680231 1.9151135 0 0 Z " fill="#C23BA5" transform="translate(103,238)"/>
<path d="M0 0 C1.8671875 0.2109375 1.8671875 0.2109375 4 1 C5.1953125 3.0390625 5.1953125 3.0390625 6.125 5.625 C6.455 6.52863281 6.785 7.43226562 7.125 8.36328125 C8.18262029 11.55030668 9.1111713 14.76212402 10 18 C10.37125 18.886875 10.7425 19.77375 11.125 20.6875 C12 23 12 23 12 27 C12.99 27 13.98 27 15 27 C16.25664978 29.90600261 17 31.79604584 17 35 C16.01 35 15.02 35 14 35 C12.00395413 30.17710726 10.01018438 25.35328255 8.01855469 20.52856445 C7.34014989 18.88605081 6.6611145 17.24379748 5.98144531 15.60180664 C5.00681855 13.24693222 4.03443447 10.89114291 3.0625 8.53515625 C2.75626709 7.79660904 2.45003418 7.05806183 2.13452148 6.2971344 C0 1.11387171 0 1.11387171 0 0 Z " fill="#6EA4A1" transform="translate(248,112)"/>
<path d="M0 0 C0.53625 0.226875 1.0725 0.45375 1.625 0.6875 C1.295 2.9975 0.965 5.3075 0.625 7.6875 C0.295 6.3675 -0.035 5.0475 -0.375 3.6875 C-1.60767348 4.69586062 -1.60767348 4.69586062 -1.47265625 6.75390625 C-1.46105469 7.57761719 -1.44945313 8.40132812 -1.4375 9.25 C-1.42847656 10.07628906 -1.41945313 10.90257812 -1.41015625 11.75390625 C-1.39855469 12.39199219 -1.38695313 13.03007812 -1.375 13.6875 C-6.125 12.9375 -6.125 12.9375 -8.375 10.6875 C-8.64491906 7.99910615 -8.46237357 5.39608064 -8.375 2.6875 C-2.95961538 -0.38942308 -2.95961538 -0.38942308 0 0 Z " fill="#F111BF" transform="translate(116.375,227.3125)"/>
<path d="M0 0 C0.66 0 1.32 0 2 0 C2 0.99 2 1.98 2 3 C2.99 3 3.98 3 5 3 C7.1875 4.5625 7.1875 4.5625 9 7 C9.1875 10.5625 9.1875 10.5625 9 14 C9.33 14.99 9.66 15.98 10 17 C10.66 17.33 11.32 17.66 12 18 C12 19.65 12 21.3 12 23 C11.01 23 10.02 23 9 23 C7.49414477 19.54418685 5.99631711 16.08495247 4.5 12.625 C4.07074219 11.64015625 3.64148438 10.6553125 3.19921875 9.640625 C2.79316406 8.69960937 2.38710938 7.75859375 1.96875 6.7890625 C1.59169922 5.91975098 1.21464844 5.05043945 0.82617188 4.15478516 C0 2 0 2 0 0 Z " fill="#60AAA7" transform="translate(276,179)"/>
<path d="M0 0 C0.33 0 0.66 0 1 0 C1.33 2.97 1.66 5.94 2 9 C1.01 9 0.02 9 -1 9 C-1.18175781 9.54527344 -1.36351562 10.09054688 -1.55078125 10.65234375 C-4.27539062 18.82617188 -4.27539062 18.82617188 -7 27 C-7.66 27 -8.32 27 -9 27 C-9.33 28.32 -9.66 29.64 -10 31 C-10.66 31 -11.32 31 -12 31 C-9.76188601 23.99593453 -7.12994735 17.22723357 -4.3125 10.4375 C-3.89677734 9.42880859 -3.48105469 8.42011719 -3.05273438 7.38085938 C-2.03784021 4.9194494 -1.02021747 2.45920717 0 0 Z " fill="#B52C94" transform="translate(186,38)"/>
<path d="M0 0 C1.65 0.33 3.3 0.66 5 1 C5.66 2.98 6.32 4.96 7 7 C2.545 8.485 2.545 8.485 -2 10 C-2.66 9.34 -3.32 8.68 -4 8 C-4 6.68 -4 5.36 -4 4 C-3.34 4 -2.68 4 -2 4 C-1.34 2.68 -0.68 1.36 0 0 Z " fill="#55B6B6" transform="translate(230,47)"/>
<path d="M0 0 C0.99 0 1.98 0 3 0 C6 6.625 6 6.625 6 10 C7.98 10 9.96 10 12 10 C12.144375 9.0925 12.28875 8.185 12.4375 7.25 C12.86464992 4.78202269 13.3741273 2.41933984 14 0 C14.69670416 1.78810766 15.38211189 3.58062052 16.0625 5.375 C16.44535156 6.37273437 16.82820313 7.37046875 17.22265625 8.3984375 C18 11 18 11 17 13 C12.49763493 12.79830445 8.29635371 12.40733465 4 11 C1.28716438 7.80380836 0 4.19831599 0 0 Z " fill="#DA23B0" transform="translate(221,181)"/>
<path d="M0 0 C0.66 0 1.32 0 2 0 C2.83986084 1.93467942 3.67168027 3.87285129 4.5 5.8125 C4.9640625 6.89144531 5.428125 7.97039062 5.90625 9.08203125 C7 12 7 12 7 15 C5.22880197 14.85866501 3.45804713 14.71176792 1.6875 14.5625 C0.70136719 14.48128906 -0.28476562 14.40007812 -1.30078125 14.31640625 C-4 14 -4 14 -7 13 C-7.33 12.01 -7.66 11.02 -8 10 C-7.34 9.67 -6.68 9.34 -6 9 C-5.34 9.33 -4.68 9.66 -4 10 C-4 10.66 -4 11.32 -4 12 C-2.35 12 -0.7 12 1 12 C1.02712066 10.56260487 1.04645067 9.12506137 1.0625 7.6875 C1.07410156 6.88699219 1.08570313 6.08648437 1.09765625 5.26171875 C1.09657855 2.83138666 1.09657855 2.83138666 0 0 Z " fill="#6DAFAF" transform="translate(316,246)"/>
<path d="M0 0 C0.33 0.99 0.66 1.98 1 3 C1.66 3.33 2.32 3.66 3 4 C3.21811297 7.81697699 3.02021295 10.69419699 1 14 C-2.125 14.8125 -2.125 14.8125 -5 15 C-5 11.37 -5 7.74 -5 4 C-4.67 4.66 -4.34 5.32 -4 6 C-1.2160817 4.60804085 -1.02101003 2.84424221 0 0 Z " fill="#51B6B6" transform="translate(226,34)"/>
<path d="M0 0 C2 0 2 0 3.625 1.125 C5.55651159 3.75887944 5.21205536 5.81916956 5 9 C1.86650268 10.04449911 1.01031744 9.93423645 -2 9 C-2 9.66 -2 10.32 -2 11 C-2.66 11 -3.32 11 -4 11 C-4.33 11.99 -4.66 12.98 -5 14 C-6 11 -6 11 -4.78515625 8.30078125 C-4.21667969 7.31464844 -3.64820313 6.32851562 -3.0625 5.3125 C-2.49660156 4.31863281 -1.93070313 3.32476562 -1.34765625 2.30078125 C-0.90292969 1.54152344 -0.45820313 0.78226562 0 0 Z " fill="#F410C2" transform="translate(159,112)"/>
<path d="M0 0 C1.32 0.33 2.64 0.66 4 1 C3.13288763 7.93689897 1.81587917 14.56370476 -1 21 C-2.13480527 17.39006828 -2.10015767 14.0157673 -2.0625 10.25 C-2.05347656 9.07953125 -2.04445312 7.9090625 -2.03515625 6.703125 C-2.02355469 5.81109375 -2.01195312 4.9190625 -2 4 C-1.34 4 -0.68 4 0 4 C0 2.68 0 1.36 0 0 Z " fill="#5CB4BC" transform="translate(210,128)"/>
<path d="M0 0 C1.65 0 3.3 0 5 0 C4.67 1.65 4.34 3.3 4 5 C4.66 5 5.32 5 6 5 C5.979375 5.804375 5.95875 6.60875 5.9375 7.4375 C5.70366379 9.93354885 5.70366379 9.93354885 7 11 C7.3720248 12.5956376 7.69819799 14.20210335 8 15.8125 C8.58429913 18.90289463 9.20539872 21.95639333 10 25 C9.34 25 8.68 25 8 25 C6.65882147 21.39870379 5.3284161 17.79352141 4 14.1875 C3.6184375 13.16333984 3.236875 12.13917969 2.84375 11.08398438 C2.4828125 10.10107422 2.121875 9.11816406 1.75 8.10546875 C1.41484375 7.19949951 1.0796875 6.29353027 0.734375 5.36010742 C0 3 0 3 0 0 Z " fill="#BC2299" transform="translate(212,155)"/>
<path d="M0 0 C2.65561386 1.96284503 3.03313844 3.14020111 3.8125 6.4375 C3.99824501 9.96665519 3.84454442 11.13070868 2 14 C1.67 14.99 1.34 15.98 1 17 C0.67 16.01 0.34 15.02 0 14 C-0.66 14 -1.32 14 -2 14 C-1.67 12.35 -1.34 10.7 -1 9 C-1.66 9 -2.32 9 -3 9 C-3.26218749 5.85375007 -3.24754367 4.38162983 -1.5 1.6875 C-1.005 1.130625 -0.51 0.57375 0 0 Z " fill="#F210C2" transform="translate(218,146)"/>
<path d="M0 0 C1.35958412 4.34874068 0.23811979 7.74594738 -1 12 C-1.350625 13.258125 -1.70125 14.51625 -2.0625 15.8125 C-2.67233232 17.88592988 -3.31655235 19.94965704 -4 22 C-1.03 22 1.94 22 5 22 C5 22.33 5 22.66 5 23 C3.58456585 23.19658808 2.16755969 23.38187546 0.75 23.5625 C-0.03890625 23.66691406 -0.8278125 23.77132813 -1.640625 23.87890625 C-4.00532874 24.00027349 -5.7511037 23.69633257 -8 23 C-5.81659819 15.13620323 -3.00714974 7.58324716 0 0 Z " fill="#82C3BF" transform="translate(162,237)"/>
<path d="M0 0 C2.73361578 4.10042367 4.35617165 8.50175731 6.1875 13.0625 C6.56841797 13.98611328 6.94933594 14.90972656 7.34179688 15.86132812 C7.87450195 17.18487305 7.87450195 17.18487305 8.41796875 18.53515625 C8.74563232 19.343479 9.0732959 20.15180176 9.41088867 20.98461914 C10 23 10 23 9 25 C6.27734375 25.4140625 6.27734375 25.4140625 2.9375 25.625 C1.83277344 25.69976562 0.72804687 25.77453125 -0.41015625 25.8515625 C-1.26480469 25.90054687 -2.11945313 25.94953125 -3 26 C-3.33 24.68 -3.66 23.36 -4 22 C-0.37 22.66 3.26 23.32 7 24 C6.20953336 21.77040136 5.41766606 19.54131666 4.625 17.3125 C4.18414062 16.07113281 3.74328125 14.82976562 3.2890625 13.55078125 C2.51696238 11.42399636 1.71231312 9.30799643 0.84375 7.21875 C-0.11963482 4.68540474 -0.15359627 2.68793478 0 0 Z " fill="#BD51A7" transform="translate(255,235)"/>
<path d="M0 0 C0.33 0 0.66 0 1 0 C1.33 2.31 1.66 4.62 2 7 C0.02 7.99 0.02 7.99 -2 9 C-2 10.98 -2 12.96 -2 15 C-2.66 15 -3.32 15 -4 15 C-3.67 15.99 -3.34 16.98 -3 18 C-3.66 18 -4.32 18 -5 18 C-5 19.65 -5 21.3 -5 23 C-5.66 23 -6.32 23 -7 23 C-7.33 23.99 -7.66 24.98 -8 26 C-8.66 26 -9.32 26 -10 26 C-7.24892128 17.09945121 -3.59701637 8.58356509 0 0 Z " fill="#AE2A90" transform="translate(166,86)"/>
<path d="M0 0 C0.99 0.33 1.98 0.66 3 1 C3 2.32 3 3.64 3 5 C3.99 5.33 4.98 5.66 6 6 C7.16821567 8.67716091 8.11834036 11.22777123 9 14 C9.27070313 14.82757813 9.54140625 15.65515625 9.8203125 16.5078125 C11.34164053 21.33765974 12.45281046 25.96585621 13 31 C10.99313119 27.98969679 9.75771378 25.18330731 8.3984375 21.8359375 C7.90859375 20.63195312 7.41875 19.42796875 6.9140625 18.1875 C6.66172852 17.56230469 6.40939453 16.93710938 6.14941406 16.29296875 C5.37434987 14.37338984 4.59384013 12.45609425 3.8125 10.5390625 C0 1.13893022 0 1.13893022 0 0 Z " fill="#AC2388" transform="translate(238,226)"/>
<path d="M0 0 C0.66 0 1.32 0 2 0 C-0.58125669 8.17397951 -3.77011881 16.06640834 -7 24 C-7.33 24 -7.66 24 -8 24 C-8.33 21.36 -8.66 18.72 -9 16 C-8.34 15.67 -7.68 15.34 -7 15 C-7 13.35 -7 11.7 -7 10 C-6.34 9.67 -5.68 9.34 -5 9 C-3.90833725 7.06669397 -3.90833725 7.06669397 -3 5 C-2.67 4.34 -2.34 3.68 -2 3 C-1.34 3 -0.68 3 0 3 C0 2.01 0 1.02 0 0 Z " fill="#C51E9E" transform="translate(163,121)"/>
<path d="M0 0 C3 1 3 1 4.125 2.75 C6.02418554 7.63361995 6.38666461 12.83045886 7 18 C6.34 18 5.68 18 5 18 C3.96241251 15.94587752 2.9454966 13.88130395 1.9375 11.8125 C1.36902344 10.66394531 0.80054688 9.51539063 0.21484375 8.33203125 C-1.04125973 4.88683423 -1.12742053 3.42091601 0 0 Z M5 4 C5.66 4 6.32 4 7 4 C6.67 4.99 6.34 5.98 6 7 C5.67 6.01 5.34 5.02 5 4 Z " fill="#64AAAB" transform="translate(215,28)"/>
<path d="M0 0 C1.32 0 2.64 0 4 0 C4 1.98 4 3.96 4 6 C3.01 6 2.02 6 1 6 C0.319375 7.85625 0.319375 7.85625 -0.375 9.75 C-2.77452575 16.08519648 -2.77452575 16.08519648 -4 18 C-4.99 18.33 -5.98 18.66 -7 19 C-4.94235079 12.54646385 -2.57616518 6.2638737 0 0 Z " fill="#B32C94" transform="translate(194,19)"/>
<path d="M0 0 C2.04650391 3.06975587 2.99704565 5.69084152 4.125 9.1875 C4.47820312 10.27417969 4.83140625 11.36085938 5.1953125 12.48046875 C5.46085938 13.31191406 5.72640625 14.14335938 6 15 C4.68 15 3.36 15 2 15 C2 14.01 2 13.02 2 12 C0.68 12.33 -0.64 12.66 -2 13 C-3.46845421 7.52667068 -2.44038726 4.88077452 0 0 Z " fill="#59A4A3" transform="translate(208,112)"/>
<path d="M0 0 C3.44061164 3.85348504 4.90566667 8.4885247 6.6875 13.25 C7.00783203 14.09046875 7.32816406 14.9309375 7.65820312 15.796875 C8.44454323 17.86248483 9.22491769 19.93014538 10 22 C9.34 22 8.68 22 8 22 C7.66226562 21.37351562 7.32453125 20.74703125 6.9765625 20.1015625 C6.53054688 19.28429687 6.08453125 18.46703125 5.625 17.625 C5.18414062 16.81289062 4.74328125 16.00078125 4.2890625 15.1640625 C3.0556107 12.89185698 3.0556107 12.89185698 1 11 C0.34 12.32 -0.32 13.64 -1 15 C-1.625 13.25 -1.625 13.25 -2 11 C-1.690625 10.401875 -1.38125 9.80375 -1.0625 9.1875 C0.43421465 6.10602866 0.12978288 3.37435478 0 0 Z " fill="#5EA7A7" transform="translate(258,105)"/>
<path d="M0 0 C4.29 0 8.58 0 13 0 C10.25 9.75 10.25 9.75 8 12 C7.91995518 8.4780279 7.95994298 5.38018531 9 2 C6.36 1.67 3.72 1.34 1 1 C0.9175 2.093125 0.835 3.18625 0.75 4.3125 C0 8 0 8 -2.0625 9.9375 C-2.701875 10.288125 -3.34125 10.63875 -4 11 C-3.39301257 6.87248551 -1.96189209 3.6678852 0 0 Z " fill="#6FB3B0" transform="translate(167,226)"/>
<path d="M0 0 C2.96555453 3.36994833 4.21220086 6.58832483 5 11 C3.625 13.4375 3.625 13.4375 2 15 C1.67 12.03 1.34 9.06 1 6 C0.34 6 -0.32 6 -1 6 C-1 6.66 -1 7.32 -1 8 C-1.66 8 -2.32 8 -3 8 C-3 8.66 -3 9.32 -3 10 C-3.66 10 -4.32 10 -5 10 C-4.67 8.02 -4.34 6.04 -4 4 C-3.01 3.67 -2.02 3.34 -1 3 C-0.67 2.01 -0.34 1.02 0 0 Z " fill="#E840C9" transform="translate(198,21)"/>
<path d="M0 0 C0.33 0 0.66 0 1 0 C1.63662293 8.11694238 1.63662293 8.11694238 -0.9375 11.6875 C-1.618125 12.450625 -2.29875 13.21375 -3 14 C-3.144375 15.010625 -3.28875 16.02125 -3.4375 17.0625 C-4 20 -4 20 -6.5625 22.375 C-7.366875 22.91125 -8.17125 23.4475 -9 24 C-6.41874331 15.82602049 -3.22988119 7.93359166 0 0 Z " fill="#B52C94" transform="translate(125,185)"/>
<path d="M0 0 C1.58193864 2.37290796 2.53089868 4.11962201 3.5078125 6.72265625 C3.90419922 7.77743164 3.90419922 7.77743164 4.30859375 8.85351562 C4.57800781 9.58248047 4.84742188 10.31144531 5.125 11.0625 C5.40214844 11.79533203 5.67929688 12.52816406 5.96484375 13.28320312 C8 18.74203356 8 18.74203356 8 21 C6.35 20.67 4.7 20.34 3 20 C2.4375 18.0625 2.4375 18.0625 2 16 C2.33 15.67 2.66 15.34 3 15 C2.7834375 14.25234375 2.566875 13.5046875 2.34375 12.734375 C1.92609375 11.25710937 1.92609375 11.25710937 1.5 9.75 C1.2215625 8.77546875 0.943125 7.8009375 0.65625 6.796875 C0 4 0 4 0 0 Z M1 20 C3 21 3 21 3 21 Z " fill="#D823AC" transform="translate(218,139)"/>
<path d="M0 0 C2.36038857 3.54058286 3.69776886 7.09806253 5.1875 11.0625 C5.47302734 11.79533203 5.75855469 12.52816406 6.05273438 13.28320312 C6.76356416 15.16664262 7.38849705 17.08200952 8 19 C7.67 19.66 7.34 20.32 7 21 C6.731875 20.38125 6.46375 19.7625 6.1875 19.125 C5.04443152 16.7004767 5.04443152 16.7004767 2 15 C-0.16472238 11.76008439 -0.21635304 9.08682761 -0.125 5.25 C-0.09792969 3.77273437 -0.09792969 3.77273437 -0.0703125 2.265625 C-0.04710937 1.51796875 -0.02390625 0.7703125 0 0 Z " fill="#D525A9" transform="translate(226,160)"/>
<path d="M0 0 C0.66 0 1.32 0 2 0 C-0.75107872 8.90054879 -4.40298363 17.41643491 -8 26 C-9.35015859 21.94952424 -8.62084998 19.2079832 -8 15 C-7.01 14.67 -6.02 14.34 -5 14 C-4.38154405 12.19752498 -4.38154405 12.19752498 -4 10 C-3.33631343 8.24083077 -2.64762161 6.49094329 -1.9375 4.75 C-1.57527344 3.85796875 -1.21304688 2.9659375 -0.83984375 2.046875 C-0.56269531 1.37140625 -0.28554687 0.6959375 0 0 Z " fill="#B51F92" transform="translate(153,145)"/>
<path d="M0 0 C3.18315856 1.59157928 3.85642677 4.80472184 5 8 C5.6875 10.9375 5.6875 10.9375 6 13 C6.66 13 7.32 13 8 13 C8.33 14.98 8.66 16.96 9 19 C8.01 19 7.02 19 6 19 C3.69 13.06 1.38 7.12 -1 1 C-0.67 0.67 -0.34 0.34 0 0 Z " fill="#6DA6A5" transform="translate(241,92)"/>
<path d="M0 0 C1.38173352 3.71668825 0.57549763 5.83126279 -0.875 9.4375 C-1.98575915 12.22993297 -2.95440544 14.73924434 -3.47265625 17.703125 C-4.23968463 21.0439597 -6.26664008 22.1076739 -9 24 C-6.41874331 15.82602049 -3.22988119 7.93359166 0 0 Z " fill="#A33084" transform="translate(115,209)"/>
<path d="M0 0 C0.33 1.32 0.66 2.64 1 4 C1.66 4 2.32 4 3 4 C3.66 2.68 4.32 1.36 5 0 C5.66 0.66 6.32 1.32 7 2 C6.7578125 4.1640625 6.7578125 4.1640625 6.125 6.625 C5.92132813 7.44226563 5.71765625 8.25953125 5.5078125 9.1015625 C5.34023437 9.72804687 5.17265625 10.35453125 5 11 C3.68 11 2.36 11 1 11 C0.63743142 9.5437328 0.28520207 8.08488815 -0.0625 6.625 C-0.35833984 5.40683594 -0.35833984 5.40683594 -0.66015625 4.1640625 C-1 2 -1 2 0 0 Z " fill="#DC1AAF" transform="translate(210,144)"/>
<path d="M0 0 C3.3 0 6.6 0 10 0 C10.75 2.125 10.75 2.125 11 5 C9.0625 8.3125 9.0625 8.3125 7 11 C6.67 10.01 6.34 9.02 6 8 C6.33 7.34 6.66 6.68 7 6 C6.34 6 5.68 6 5 6 C5 4.35 5 2.7 5 1 C3.68 1 2.36 1 1 1 C0.67 1.66 0.34 2.32 0 3 C0 2.01 0 1.02 0 0 Z " fill="#ED11B9" transform="translate(241,227)"/>
<path d="M0 0 C0.433125 0.474375 0.86625 0.94875 1.3125 1.4375 C3.02309613 3.23686957 3.02309613 3.23686957 6 4 C4.45730076 8.72065967 2.92205381 13.41664092 1 18 C0.67 18 0.34 18 0 18 C0.01160156 17.10796875 0.02320312 16.2159375 0.03515625 15.296875 C0.04417969 14.12640625 0.05320312 12.9559375 0.0625 11.75 C0.07410156 10.58984375 0.08570312 9.4296875 0.09765625 8.234375 C0.01737186 5.57535611 -0.33000291 3.53512411 -1 1 C-0.67 0.67 -0.34 0.34 0 0 Z " fill="#C21AA0" transform="translate(121,209)"/>
<path d="M0 0 C0.33 0 0.66 0 1 0 C1 2.64 1 5.28 1 8 C0.01 8.495 0.01 8.495 -1 9 C-1 10.65 -1 12.3 -1 14 C-1.99 14.33 -2.98 14.66 -4 15 C-4.33 16.98 -4.66 18.96 -5 21 C-5.99 21.33 -6.98 21.66 -8 22 C-5.92957946 14.39162534 -3.14169523 7.2271408 0 0 Z " fill="#B42D94" transform="translate(139,151)"/>
<path d="M0 0 C0.33 0.66 0.66 1.32 1 2 C1.99 2.33 2.98 2.66 4 3 C4.33 6.63 4.66 10.26 5 14 C4.34 14 3.68 14 3 14 C1.35 9.71 -0.3 5.42 -2 1 C-1.34 0.67 -0.68 0.34 0 0 Z " fill="#65A6A4" transform="translate(267,152)"/>
<path d="M0 0 C0.99 0.66 1.98 1.32 3 2 C3.4375 8.125 3.4375 8.125 2 11 C0.35 11 -1.3 11 -3 11 C-2.67 9.02 -2.34 7.04 -2 5 C-1.34 5 -0.68 5 0 5 C0 3.35 0 1.7 0 0 Z " fill="#51B8B9" transform="translate(315,247)"/>
<path d="M0 0 C1.78529703 5.18469822 -0.02112089 10.07893837 -2 15 C-4.6875 17.6875 -4.6875 17.6875 -7 19 C-5.17778624 12.38757278 -2.94776396 6.19479329 0 0 Z " fill="#AB2D8A" transform="translate(155,113)"/>
<path d="M0 0 C-0.49658297 5.66104589 -1.54510684 9.87674471 -4 15 C-6.1519437 11.77208445 -6.20086443 10.71599191 -6 7 C-5.34 7 -4.68 7 -4 7 C-4 6.34 -4 5.68 -4 5 C-3.34 5 -2.68 5 -2 5 C-2.33 3.68 -2.66 2.36 -3 1 C-1 0 -1 0 0 0 Z " fill="#D21BAA" transform="translate(173,98)"/>
<path d="M0 0 C1.02653826 3.76673312 1.28495693 7.08184221 1 11 C-0.3125 12.75 -0.3125 12.75 -2 14 C-2.556875 14.556875 -3.11375 15.11375 -3.6875 15.6875 C-4.120625 16.120625 -4.55375 16.55375 -5 17 C-5.33 16.34 -5.66 15.68 -6 15 C-5.09239638 12.40267775 -4.12932108 9.90549025 -3.0625 7.375 C-2.77181641 6.66859375 -2.48113281 5.9621875 -2.18164062 5.234375 C-1.46132512 3.48672427 -0.73154306 1.74298085 0 0 Z " fill="#A92B91" transform="translate(173,69)"/>
<path d="M0 0 C0.99 0 1.98 0 3 0 C3 0.66 3 1.32 3 2 C2.34 2 1.68 2 1 2 C0.95101562 2.68707031 0.90203125 3.37414062 0.8515625 4.08203125 C0.77679688 4.98308594 0.70203125 5.88414062 0.625 6.8125 C0.55539063 7.70582031 0.48578125 8.59914062 0.4140625 9.51953125 C0 12 0 12 -2 15 C-2.99 14.67 -3.98 14.34 -5 14 C-3.35 9.38 -1.7 4.76 0 0 Z " fill="#6FA5A3" transform="translate(186,171)"/>
<path d="M0 0 C0.33 0 0.66 0 1 0 C1.19622241 4.21878192 0.80230168 7.17010894 -1 11 C-1.66 11 -2.32 11 -3 11 C-3.33 13.64 -3.66 16.28 -4 19 C-4.66 18.67 -5.32 18.34 -6 18 C-4.41039668 11.76559832 -2.72399099 5.83712355 0 0 Z " fill="#86B8B9" transform="translate(202,129)"/>
<path d="M0 0 C1.32 0 2.64 0 4 0 C4 1.65 4 3.3 4 5 C1.47524538 6.26237731 -0.31200466 6.09856404 -3.125 6.0625 C-4.03507812 6.05347656 -4.94515625 6.04445313 -5.8828125 6.03515625 C-6.58148438 6.02355469 -7.28015625 6.01195312 -8 6 C-8 5.34 -8 4.68 -8 4 C-5.36 4 -2.72 4 0 4 C0 2.68 0 1.36 0 0 Z " fill="#B13E98" transform="translate(105,255)"/>
<path d="M0 0 C0.66 0 1.32 0 2 0 C2.33 1.32 2.66 2.64 3 4 C3.66 4 4.32 4 5 4 C5.33 6.64 5.66 9.28 6 12 C4.02 11.34 2.04 10.68 0 10 C0.66 9.67 1.32 9.34 2 9 C1.67 8.2575 1.34 7.515 1 6.75 C0 4 0 4 0 0 Z " fill="#52BAB7" transform="translate(299,224)"/>
<path d="M0 0 C0.33 0 0.66 0 1 0 C1.33 2.97 1.66 5.94 2 9 C1.01 9 0.02 9 -1 9 C-1.45375 10.134375 -1.9075 11.26875 -2.375 12.4375 C-4 16 -4 16 -6 17 C-4.33846988 11.14340094 -2.52958084 5.5409866 0 0 Z " fill="#AB2C8D" transform="translate(186,38)"/>
<path d="M0 0 C0.99 0 1.98 0 3 0 C1.45730076 4.72065967 -0.07794619 9.41664092 -2 14 C-2.33 14 -2.66 14 -3 14 C-3.33 10.7 -3.66 7.4 -4 4 C-3.01 3.67 -2.02 3.34 -1 3 C-0.67 2.01 -0.34 1.02 0 0 Z " fill="#B41D91" transform="translate(118,227)"/>
<path d="M0 0 C1.32 0.33 2.64 0.66 4 1 C4.33 3.31 4.66 5.62 5 8 C5.66 8 6.32 8 7 8 C7 10.64 7 13.28 7 16 C4.89149671 12.83724506 3.71169124 9.86528462 2.375 6.3125 C1.70597656 4.54326172 1.70597656 4.54326172 1.0234375 2.73828125 C0.68570313 1.83464844 0.34796875 0.93101563 0 0 Z " fill="#6FA1A1" transform="translate(233,76)"/>
<path d="M0 0 C2.6855594 2.6855594 3.06049974 5.37621328 4 9 C2.68 9 1.36 9 0 9 C-0.33 10.98 -0.66 12.96 -1 15 C-1.66 15 -2.32 15 -3 15 C-2 10 -1 5 0 0 Z " fill="#AE4CAB" transform="translate(214,129)"/>
<path d="M0 0 C2.33190902 2.11991729 4.02033604 3.97194777 5 7 C4.125 9.75 4.125 9.75 3 12 C2.34 12 1.68 12 1 12 C1 9.36 1 6.72 1 4 C0.34 4 -0.32 4 -1 4 C-0.67 2.68 -0.34 1.36 0 0 Z " fill="#DF16AE" transform="translate(183,60)"/>
<path d="M0 0 C2.74710511 4.12065766 3.63965531 8.23879359 5 13 C1.37 12.67 -2.26 12.34 -6 12 C-6 11.67 -6 11.34 -6 11 C-2.535 10.505 -2.535 10.505 1 10 C0.67 6.7 0.34 3.4 0 0 Z " fill="#902271" transform="translate(234,181)"/>
<path d="M0 0 C1.32 0.33 2.64 0.66 4 1 C5.046875 3.28515625 5.046875 3.28515625 5.75 6.0625 C5.99234375 6.98160156 6.2346875 7.90070313 6.484375 8.84765625 C6.65453125 9.55792969 6.8246875 10.26820312 7 11 C6.01 11 5.02 11 4 11 C2.68 7.37 1.36 3.74 0 0 Z " fill="#66A3A0" transform="translate(248,112)"/>
<path d="M0 0 C2 3 2 3 3 5 C3.66 4.34 4.32 3.68 5 3 C5.99 3.66 6.98 4.32 8 5 C7.67 5.66 7.34 6.32 7 7 C6.34 7 5.68 7 5 7 C4.67 8.65 4.34 10.3 4 12 C2 11 2 11 0.875 7.6875 C0 4 0 4 0 0 Z " fill="#E616B5" transform="translate(219,169)"/>
<path d="M0 0 C1.32 0 2.64 0 4 0 C4 1.98 4 3.96 4 6 C2.02 6.33 0.04 6.66 -2 7 C-1.34 4.69 -0.68 2.38 0 0 Z " fill="#B4409A" transform="translate(194,19)"/>
<path d="M0 0 C0.99 0 1.98 0 3 0 C3 1.32 3 2.64 3 4 C3.99 4.33 4.98 4.66 6 5 C3.36 5.66 0.72 6.32 -2 7 C-1.125 1.125 -1.125 1.125 0 0 Z " fill="#DE36B4" transform="translate(97,254)"/>
<path d="M0 0 C0.66 0.33 1.32 0.66 2 1 C1.32829194 4.8063457 0.27253436 8.35206816 -1 12 C-1.99 11.67 -2.98 11.34 -4 11 C-3.5247412 9.35303396 -3.04468109 7.70745272 -2.5625 6.0625 C-2.29566406 5.14597656 -2.02882812 4.22945312 -1.75390625 3.28515625 C-1 1 -1 1 0 0 Z " fill="#5BB5AF" transform="translate(165,234)"/>
<path d="M0 0 C0.99 0.33 1.98 0.66 3 1 C3.33 1.99 3.66 2.98 4 4 C4.66 4.33 5.32 4.66 6 5 C6 6.98 6 8.96 6 11 C5.34 11 4.68 11 4 11 C2.68 7.37 1.36 3.74 0 0 Z " fill="#6AA09F" transform="translate(286,203)"/>
<path d="M0 0 C0.99 0 1.98 0 3 0 C2.11264751 2.66205746 1.0859614 5.1312472 -0.0625 7.6875 C-0.42472656 8.49574219 -0.78695312 9.30398437 -1.16015625 10.13671875 C-1.43730469 10.75160156 -1.71445313 11.36648437 -2 12 C-2.66 12 -3.32 12 -4 12 C-3.52309796 10.37433394 -3.04340334 8.74948689 -2.5625 7.125 C-2.29566406 6.22007812 -2.02882812 5.31515625 -1.75390625 4.3828125 C-1 2 -1 2 0 0 Z " fill="#71A29F" transform="translate(191,158)"/>
<path d="M0 0 C1.6594907 3.3189814 0.01808761 6.60853618 -1 10 C-1.63028587 11.68076231 -2.28050817 13.35544725 -3 15 C-4.37432457 11.18243176 -3.67975039 7.92744671 -3 4 C-2.34 4 -1.68 4 -1 4 C-0.67 2.68 -0.34 1.36 0 0 Z " fill="#7F9EC3" transform="translate(212,134)"/>
<path d="M0 0 C2.475 0.495 2.475 0.495 5 1 C5.33 1.99 5.66 2.98 6 4 C5.34 4 4.68 4 4 4 C4.33 5.32 4.66 6.64 5 8 C4.01 8.495 4.01 8.495 3 9 C2.01 6.03 1.02 3.06 0 0 Z " fill="#69A7A8" transform="translate(299,234)"/>
<path d="M0 0 C1.66832577 2.50248865 2.62381674 4.41149187 3.625 7.1875 C3.88539063 7.90292969 4.14578125 8.61835938 4.4140625 9.35546875 C4.60742188 9.89816406 4.80078125 10.44085938 5 11 C4.34 11 3.68 11 3 11 C3 10.34 3 9.68 3 9 C1.68 8.67 0.36 8.34 -1 8 C-0.67 5.36 -0.34 2.72 0 0 Z " fill="#60A09F" transform="translate(293,188)"/>
<path d="M0 0 C-0.45261358 1.43931117 -0.91232979 2.87638999 -1.375 4.3125 C-1.63023437 5.11300781 -1.88546875 5.91351563 -2.1484375 6.73828125 C-3 9 -3 9 -5 12 C-5.36666667 4.66666667 -5.36666667 4.66666667 -3.625 1.5 C-2 0 -2 0 0 0 Z " fill="#549D9A" transform="translate(202,165)"/>
<path d="M0 0 C0.99 0.33 1.98 0.66 3 1 C2.34 3.97 1.68 6.94 1 10 C0.67 9.34 0.34 8.68 0 8 C-0.66 8 -1.32 8 -2 8 C-2 6.68 -2 5.36 -2 4 C-1.34 4 -0.68 4 0 4 C0 2.68 0 1.36 0 0 Z " fill="#F010C1" transform="translate(213,140)"/>
<path d="M0 0 C2.97 0 5.94 0 9 0 C8.01 0.495 8.01 0.495 7 1 C7 1.66 7 2.32 7 3 C4.36 3 1.72 3 -1 3 C-0.67 2.01 -0.34 1.02 0 0 Z " fill="#5CB4BA" transform="translate(168,231)"/>
<path d="M0 0 C1.66832577 2.50248865 2.62381674 4.41149187 3.625 7.1875 C4.01558594 8.26064453 4.01558594 8.26064453 4.4140625 9.35546875 C4.60742188 9.89816406 4.80078125 10.44085938 5 11 C4.34 11 3.68 11 3 11 C2.67 11.66 2.34 12.32 2 13 C0.54815522 8.46298506 -0.23509196 4.81938524 0 0 Z " fill="#5AA29B" transform="translate(288,176)"/>
<path d="M0 0 C0.99 0 1.98 0 3 0 C4.25664978 2.90600261 5 4.79604584 5 8 C4.01 8 3.02 8 2 8 C0.74335022 5.09399739 0 3.20395416 0 0 Z " fill="#6AAEAC" transform="translate(260,139)"/>
<path d="M0 0 C2.47859908 2.2008849 3.61210366 4.06372969 4.6875 7.1875 C4.93886719 7.90292969 5.19023437 8.61835937 5.44921875 9.35546875 C5.63097656 9.89816406 5.81273437 10.44085938 6 11 C5.01 11 4.02 11 3 11 C2.690625 10.195625 2.38125 9.39125 2.0625 8.5625 C1.23664655 6.10919595 1.23664655 6.10919595 0 5 C-0.04063832 3.33382885 -0.042721 1.66611905 0 0 Z " fill="#63A7A6" transform="translate(249,85)"/>
<path d="M0 0 C0.33 0 0.66 0 1 0 C1 1.98 1 3.96 1 6 C4.3 6 7.6 6 11 6 C11 6.33 11 6.66 11 7 C9.58456585 7.19658808 8.16755969 7.38187546 6.75 7.5625 C5.96109375 7.66691406 5.1721875 7.77132813 4.359375 7.87890625 C1.99467126 8.00027349 0.2488963 7.69633257 -2 7 C-1.34 4.69 -0.68 2.38 0 0 Z " fill="#96C5C5" transform="translate(156,253)"/>
<path d="M0 0 C0.66 0.33 1.32 0.66 2 1 C1.69381595 4.67420866 1.24228216 5.78135513 -1.5625 8.3125 C-2.366875 8.869375 -3.17125 9.42625 -4 10 C-3.52449439 8.51965236 -3.04448784 7.04074979 -2.5625 5.5625 C-2.29566406 4.73878906 -2.02882813 3.91507813 -1.75390625 3.06640625 C-1 1 -1 1 0 0 Z " fill="#BA2B98" transform="translate(110,223)"/>
<path d="M0 0 C0.33 0 0.66 0 1 0 C1.3125 3.1875 1.3125 3.1875 1 7 C-1.5 9.9375 -1.5 9.9375 -4 12 C-3.52309796 10.37433394 -3.04340334 8.74948689 -2.5625 7.125 C-2.29566406 6.22007812 -2.02882813 5.31515625 -1.75390625 4.3828125 C-1 2 -1 2 0 0 Z " fill="#B02E8E" transform="translate(130,173)"/>
<path d="M0 0 C0.99 0.33 1.98 0.66 3 1 C3.125 3.875 3.125 3.875 3 7 C2.34 7.66 1.68 8.32 1 9 C-0.61949011 6.42786866 -1.04408751 5.32330841 -0.625 2.25 C-0.41875 1.5075 -0.2125 0.765 0 0 Z " fill="#6C9F9B" transform="translate(215,28)"/>
<path d="M0 0 C1.98 0.99 1.98 0.99 4 2 C3.39009109 5.55780196 2.4216319 8.6828589 1 12 C0.67 12 0.34 12 0 12 C-0.08098342 8.43672942 0.14012536 5.43949858 1 2 C0.67 1.34 0.34 0.68 0 0 Z " fill="#AB1A89" transform="translate(111,239)"/>
<path d="M0 0 C0.144375 0.763125 0.28875 1.52625 0.4375 2.3125 C0.9632594 5.08172908 0.9632594 5.08172908 2 8 C1.01 7.67 0.02 7.34 -1 7 C-1 6.34 -1 5.68 -1 5 C-1.99 5.33 -2.98 5.66 -4 6 C-3.625 3.5625 -3.625 3.5625 -3 1 C-1 0 -1 0 0 0 Z " fill="#D121A8" transform="translate(108,232)"/>
<path d="M0 0 C2.7558573 4.13378595 3.10756445 6.05203546 3 11 C2.01 11.33 1.02 11.66 0 12 C0.33 10.68 0.66 9.36 1 8 C0.34 7.67 -0.32 7.34 -1 7 C-0.34 6.67 0.32 6.34 1 6 C0.67 4.02 0.34 2.04 0 0 Z " fill="#5CB6BD" transform="translate(263,129)"/>
<path d="M0 0 C1.66832577 2.50248865 2.62381674 4.41149187 3.625 7.1875 C4.01558594 8.26064453 4.01558594 8.26064453 4.4140625 9.35546875 C4.60742188 9.89816406 4.80078125 10.44085938 5 11 C4.01 11.495 4.01 11.495 3 12 C-0.42857143 4.71428571 -0.42857143 4.71428571 0 0 Z " fill="#B5419D" transform="translate(255,235)"/>
<path d="M0 0 C0.66 0 1.32 0 2 0 C2 0.99 2 1.98 2 3 C2.99 3 3.98 3 5 3 C5.33 3.99 5.66 4.98 6 6 C5.01 6.99 4.02 7.98 3 9 C2.01 6.03 1.02 3.06 0 0 Z " fill="#689999" transform="translate(276,179)"/>
<path d="M0 0 C3.80984844 2.77079887 4.06840752 6.62868145 5 11 C3 10 3 10 2 7 C1.34 6.67 0.68 6.34 0 6 C0 4.02 0 2.04 0 0 Z " fill="#C52E9F" transform="translate(229,170)"/>
<path d="M0 0 C1.90389849 2.85584773 2.69462177 4.9311762 3.625 8.1875 C4.01558594 9.53908203 4.01558594 9.53908203 4.4140625 10.91796875 C4.60742188 11.60503906 4.80078125 12.29210937 5 13 C2.53686261 11.17251097 1.16571382 9.77023784 0.51171875 6.73046875 C0.27481707 4.48520654 0.09638651 2.25544422 0 0 Z " fill="#BB38A3" transform="translate(218,139)"/>
<path d="M0 0 C0.99 0.66 1.98 1.32 3 2 C2.67 3.98 2.34 5.96 2 8 C1.34 8 0.68 8 0 8 C-0.66 5.69 -1.32 3.38 -2 1 C-1.34 0.67 -0.68 0.34 0 0 Z " fill="#F510BA" transform="translate(164,100)"/>
<path d="M0 0 C4.29 0.66 8.58 1.32 13 2 C13 2.33 13 2.66 13 3 C7.06 3.495 7.06 3.495 1 4 C0.67 2.68 0.34 1.36 0 0 Z " fill="#CB48AA" transform="translate(251,257)"/>
<path d="M0 0 C2.17766075 4.35532149 2.03039555 5.46625958 1 10 C0.34 10 -0.32 10 -1 10 C-0.67 6.7 -0.34 3.4 0 0 Z " fill="#CF1CA6" transform="translate(109,245)"/>
<path d="M0 0 C1.65 0 3.3 0 5 0 C4.6875 2.375 4.6875 2.375 4 5 C3.01 5.66 2.02 6.32 1 7 C0.67 4.69 0.34 2.38 0 0 Z " fill="#60B7B6" transform="translate(170,238)"/>
<path d="M0 0 C0.66 0 1.32 0 2 0 C1.50168276 3.68754757 0.89932357 5.60490662 -2 8 C-2.125 5.125 -2.125 5.125 -2 2 C-1.34 1.34 -0.68 0.68 0 0 Z " fill="#C01D98" transform="translate(142,171)"/>
<path d="M0 0 C0.99 0 1.98 0 3 0 C3.33 3.3 3.66 6.6 4 10 C1.81024227 6.71536341 1.00193437 3.79303725 0 0 Z " fill="#AD398A" transform="translate(221,181)"/>
<path d="M0 0 C0.33 0 0.66 0 1 0 C1 2.64 1 5.28 1 8 C-0.98 8.99 -0.98 8.99 -3 10 C-2.01 6.7 -1.02 3.4 0 0 Z " fill="#A72F8E" transform="translate(139,151)"/>
<path d="M0 0 C0.66 0.33 1.32 0.66 2 1 C1.814375 1.556875 1.62875 2.11375 1.4375 2.6875 C0.92448835 5.399133 1.3359276 7.34371039 2 10 C1.01 10.495 1.01 10.495 0 11 C-1.16461426 7.50615721 -1.13568319 4.66344611 -1 1 C-0.67 0.67 -0.34 0.34 0 0 Z " fill="#E418B6" transform="translate(188,37)"/>
<path d="M0 0 C1.32 1.32 2.64 2.64 4 4 C3.34 5.98 2.68 7.96 2 10 C-0.09350689 6.5980513 -0.17942163 3.94727588 0 0 Z " fill="#CD35AB" transform="translate(199,26)"/>
<path d="M0 0 C1.32 0.33 2.64 0.66 4 1 C3.01 1 2.02 1 1 1 C0.71125 1.94875 0.4225 2.8975 0.125 3.875 C-1 7 -1 7 -3 9 C-2.67 6.69 -2.34 4.38 -2 2 C-1.34 2 -0.68 2 0 2 C0 1.34 0 0.68 0 0 Z " fill="#A6CACB" transform="translate(219,20)"/>
<path d="M0 0 C0.33 0 0.66 0 1 0 C1.25 3.3125 1.25 3.3125 1 7 C-1 8.9375 -1 8.9375 -3 10 C-2.39009109 6.44219804 -1.4216319 3.3171411 0 0 Z " fill="#88C0BE" transform="translate(166,227)"/>
<path d="M0 0 C1.32 0.33 2.64 0.66 4 1 C4.33 2.65 4.66 4.3 5 6 C4.01 6 3.02 6 2 6 C1.34 4.02 0.68 2.04 0 0 Z " fill="#68A5A5" transform="translate(296,227)"/>
<path d="M0 0 C0.66 0 1.32 0 2 0 C2 0.66 2 1.32 2 2 C2.66 2 3.32 2 4 2 C4.33 3.98 4.66 5.96 5 8 C4.34 8 3.68 8 3 8 C2.01 5.36 1.02 2.72 0 0 Z " fill="#6EA4A2" transform="translate(291,215)"/>
<path d="M0 0 C0.33 0 0.66 0 1 0 C1.125 3.375 1.125 3.375 1 7 C0.34 7.66 -0.32 8.32 -1 9 C-1.66 8.34 -2.32 7.68 -3 7 C-2.01 4.69 -1.02 2.38 0 0 Z " fill="#7DB9B6" transform="translate(195,148)"/>
<path d="M0 0 C0.99 0.33 1.98 0.66 3 1 C3 2.65 3 4.3 3 6 C2.34 6 1.68 6 1 6 C0.67 6.66 0.34 7.32 0 8 C0 5.36 0 2.72 0 0 Z " fill="#4DBABB" transform="translate(208,132)"/>
<path d="M0 0 C2 1 2 1 2 1 Z " fill="#66706B" transform="translate(110,261)"/>
<path d="M0 0 C2 1 2 1 2 1 Z " fill="#667068" transform="translate(195,16)"/>
<path d="" fill="#1A1A1A" transform="translate(0,0)"/>
</svg>
